<?xml version="1.0" encoding="UTF-8" standalone="no"?>
<!-- Created with Inkscape (http://www.inkscape.org/) -->

<svg
   xmlns:dc="http://purl.org/dc/elements/1.1/"
   xmlns:cc="http://creativecommons.org/ns#"
   xmlns:rdf="http://www.w3.org/1999/02/22-rdf-syntax-ns#"
   xmlns:svg="http://www.w3.org/2000/svg"
   xmlns="http://www.w3.org/2000/svg"
   xmlns:sodipodi="http://sodipodi.sourceforge.net/DTD/sodipodi-0.dtd"
   xmlns:inkscape="http://www.inkscape.org/namespaces/inkscape"
   width="17.314615mm"
   height="16.482624mm"
   viewBox="0 0 61.350999 58.402998"
   id="svg2"
   version="1.1"
   inkscape:version="0.91 r13725"
   sodipodi:docname="ffmpeg.svg">
  <defs
     id="defs4">
    <radialGradient
       r="29.5804"
       gradientTransform="matrix(1,0,0,-1,134.4463,453.7334)"
       cx="-122.3936"
       cy="442.72311"
       gradientUnits="userSpaceOnUse"
       id="a">
      <stop
         id="stop3341"
         offset="0"
         stop-color="#fff" />
      <stop
         id="stop3343"
         offset="1"
         stop-color="#007808" />
    </radialGradient>
  </defs>
  <sodipodi:namedview
     id="base"
     pagecolor="#ffffff"
     bordercolor="#666666"
     borderopacity="1.0"
     inkscape:pageopacity="0.0"
     inkscape:pageshadow="2"
     inkscape:zoom="1.4"
     inkscape:cx="430.91596"
     inkscape:cy="-63.880937"
     inkscape:document-units="px"
     inkscape:current-layer="g3406"
     showgrid="false"
     fit-margin-top="0"
     fit-margin-left="0"
     fit-margin-right="0"
     fit-margin-bottom="0"
     inkscape:window-width="1920"
     inkscape:window-height="1177"
     inkscape:window-x="3832"
     inkscape:window-y="301"
     inkscape:window-maximized="1" />
  <metadata
     id="metadata7">
    <rdf:RDF>
      <cc:Work
         rdf:about="">
        <dc:format>image/svg+xml</dc:format>
        <dc:type
           rdf:resource="http://purl.org/dc/dcmitype/StillImage" />
        <dc:title></dc:title>
      </cc:Work>
    </rdf:RDF>
  </metadata>
  <g
     inkscape:label="Layer 1"
     inkscape:groupmode="layer"
     id="layer1"
     transform="translate(-7.7783258,-122.26883)">
    <g
       id="g3406"
       transform="translate(7.7783258,122.26883)">
      <g
         id="g3345">
        <polygon
           id="polygon3347"
           points="0.511,5.078 5.402,6.763 5.402,13.541 0.511,12.364 "
           style="fill:#0b4819" />
        <polygon
           id="polygon3349"
           points="4.455,15.226 9.13,16.215 9.13,41.393 4.455,42.317 "
           style="fill:#0b4819" />
        <polygon
           id="polygon3351"
           points="19.834,45.706 25.361,45.997 55.516,15.154 55.516,44.305 52.166,47.454 60.662,47.913 60.662,55.981 34.012,53.917 47.597,40.738 47.597,34.243 28.175,53.465 4.919,51.667 42.222,11.55 36.083,11.882 9.13,41.393 9.13,16.215 11.683,13.201 5.402,13.541 5.402,6.763 27.321,5.066 15.306,18.846 15.306,24.71 33.126,4.617 61.351,2.432 "
           style="fill:#105c80" />
        <polygon
           id="polygon3353"
           points="7.159,11.971 11.683,13.201 9.13,16.215 4.455,15.226 "
           style="fill:#0b4819" />
        <polygon
           id="polygon3355"
           points="15.306,18.846 15.306,24.71 11.004,24.358 11.004,18.039 "
           style="fill:#084010" />
        <polygon
           id="polygon3357"
           points="19.834,45.706 25.361,45.997 21.714,47.346 15.82,47.006 "
           style="fill:#0c541e" />
        <polygon
           id="polygon3359"
           points="27.321,5.066 15.306,18.846 11.004,18.039 23.808,3.106 "
           style="fill:#1a5c34" />
        <polygon
           id="polygon3361"
           points="30.022,2.58 33.126,4.617 15.306,24.71 11.004,24.358 "
           style="fill:#0b4819" />
        <polygon
           id="polygon3363"
           points="36.083,11.882 9.13,41.393 4.455,42.317 33.195,10.432 "
           style="fill:#1a5c34" />
        <polygon
           id="polygon3365"
           points="39.798,10.042 42.222,11.55 4.919,51.667 0,53.344 "
           style="fill:#0b4819" />
        <polygon
           id="polygon3367"
           points="47.597,34.243 28.175,53.465 24.721,55.437 45.597,34.677 "
           style="fill:#1a5c34" />
        <polygon
           id="polygon3369"
           points="45.597,34.677 47.597,34.243 47.597,40.738 45.597,41.737 "
           style="fill:#0b4819" />
        <polygon
           id="polygon3371"
           points="45.597,41.737 47.597,40.738 34.012,53.917 30.973,55.965 "
           style="fill:#0b4819" />
        <polygon
           id="polygon3373"
           points="50.538,49.059 52.166,47.454 55.516,44.305 54.168,45.648 "
           style="fill:#13802d" />
        <polygon
           id="polygon3375"
           points="54.168,13.9 55.516,15.154 25.361,45.997 21.714,47.346 "
           style="fill:#0b4819" />
        <polygon
           id="polygon3377"
           points="55.516,15.154 55.516,44.305 54.168,45.648 54.168,13.9 "
           style="fill:#084010" />
        <polygon
           id="polygon3379"
           points="60.662,47.913 60.662,55.981 59.759,58.403 59.759,49.604 "
           style="fill:#084010" />
        <polygon
           id="polygon3381"
           points="61.351,2.432 19.834,45.706 15.82,47.006 60.507,0 "
           style="fill:#1a5c34" />
        <polygon
           id="polygon3383"
           points="15.82,47.006 21.714,47.346 54.168,13.9 54.168,45.648 50.538,49.059 59.759,49.604 59.759,58.403 30.973,55.965 45.597,41.737 45.597,34.677 24.721,55.437 0,53.344 39.798,10.042 33.195,10.432 4.455,42.317 4.455,15.226 7.159,11.971 0.511,12.364 0.511,5.078 23.808,3.106 11.004,18.039 11.004,24.358 30.022,2.58 60.507,0 "
           style="fill:url(#a)" />
      </g>
    </g>
  </g>
</svg>
