<?xml version="1.0" encoding="UTF-8" standalone="no"?>
<!-- Created with Inkscape (http://www.inkscape.org/) -->

<svg
   xmlns:dc="http://purl.org/dc/elements/1.1/"
   xmlns:cc="http://creativecommons.org/ns#"
   xmlns:rdf="http://www.w3.org/1999/02/22-rdf-syntax-ns#"
   xmlns:svg="http://www.w3.org/2000/svg"
   xmlns="http://www.w3.org/2000/svg"
   xmlns:sodipodi="http://sodipodi.sourceforge.net/DTD/sodipodi-0.dtd"
   xmlns:inkscape="http://www.inkscape.org/namespaces/inkscape"
   width="46.335732mm"
   height="16.51mm"
   viewBox="0 0 164.18173 58.500001"
   id="svg3435"
   version="1.1"
   inkscape:version="0.91 r13725"
   sodipodi:docname="vray.svg">
  <defs
     id="defs3437" />
  <sodipodi:namedview
     id="base"
     pagecolor="#000000"
     bordercolor="#666666"
     borderopacity="1.0"
     inkscape:pageopacity="0"
     inkscape:pageshadow="2"
     inkscape:zoom="2.8"
     inkscape:cx="155.17354"
     inkscape:cy="-6.673539"
     inkscape:document-units="px"
     inkscape:current-layer="g3604"
     showgrid="false"
     fit-margin-top="0"
     fit-margin-left="0"
     fit-margin-right="0"
     fit-margin-bottom="0"
     inkscape:window-width="1920"
     inkscape:window-height="1177"
     inkscape:window-x="3832"
     inkscape:window-y="301"
     inkscape:window-maximized="1" />
  <metadata
     id="metadata3440">
    <rdf:RDF>
      <cc:Work
         rdf:about="">
        <dc:format>image/svg+xml</dc:format>
        <dc:type
           rdf:resource="http://purl.org/dc/dcmitype/StillImage" />
        <dc:title></dc:title>
      </cc:Work>
    </rdf:RDF>
  </metadata>
  <g
     inkscape:label="Layer 1"
     inkscape:groupmode="layer"
     id="layer1"
     transform="translate(-0.527227,-10.33278)">
    <g
       id="g3549"
       transform="translate(-153.04286,347.32649)">
      <g
         id="g3705"
         transform="translate(163.42723,-248.99371)">
        <rect
           id="rect3602"
           height="59.099998"
           width="431.29999"
           class="st0"
           y="1"
           x="3"
           style="fill:none" />
        <g
           id="g3604"
           transform="translate(-12.857143,-90)">
          <g
             id="g3606">
            <path
               id="path3608"
               d="m 59,12.3 -0.3,-0.8 c -0.1,-0.3 -0.3,-1.1 0.8,-1.1 l 1.4,0 2.4,0 c 0.6,0 0.7,0.6 0.8,0.8 l 6.4,18.4 c 0,0 0.5,1.6 0.9,1.6 0.4,0 0.9,-1.6 0.9,-1.6 l 6.3,-18.4 c 0.1,-0.3 0.2,-0.8 1.1,-0.8 l 3.5,0 c 1,0 0.9,0.6 0.8,0.8 l -0.3,0.9 -11,31.6 c -0.2,1 -2.9,0.9 -3.1,0 L 59,12.3 Z"
               class="st1"
               inkscape:connector-curvature="0"
               style="fill:#000" />
            <path
               id="path3610"
               d="M 148.7,44.6 137.4,11.1 c -0.1,-0.3 -0.2,-0.8 0.8,-0.8 l 4.1,0 c 0.3,0 0.6,0.2 0.8,0.8 0,0 7.2,21.9 7.5,22.6 0.3,0.8 0.5,1.6 0.9,1.7 0.3,0 0.6,-0.6 0.8,-1.2 0.3,-0.9 8.9,-22.8 8.9,-22.8 0.1,-0.3 0.2,-0.5 0.3,-0.6 0.1,-0.1 0.3,-0.2 0.5,-0.2 l 2.7,0 1.6,0 c 1.1,0 0.9,0.6 0.8,0.8 l -15.2,39.1 -3.8,9.2 c -0.1,0.3 -0.2,0.5 -0.3,0.6 0,0.2 -0.2,0.2 -0.5,0.2 l -3.8,0 c -0.3,0 -0.5,0 -0.8,-0.2 -0.2,-0.1 -0.2,-0.3 0,-0.6 l 6,-15.1"
               class="st1"
               inkscape:connector-curvature="0"
               style="fill:#000" />
            <path
               id="path3612"
               d="m 82.4,30 c 0,-0.8 0.3,-1.5 0.8,-2.1 0.6,-0.6 1.3,-0.9 2.1,-0.9 0.8,0 1.5,0.3 2.1,0.9 0.6,0.6 0.9,1.3 0.9,2.1 0,0.8 -0.3,1.5 -0.9,2.2 -0.6,0.5 -1.3,0.8 -2.1,0.8 -0.8,0 -1.5,-0.3 -2.1,-0.8 -0.5,-0.6 -0.8,-1.3 -0.8,-2.2 z"
               class="st1"
               inkscape:connector-curvature="0"
               style="fill:#000" />
            <path
               id="path3614"
               d="m 102.6,15.9 c -0.7,0.3 -1.3,0.8 -1.9,1.2 -0.2,0.1 -0.3,0.2 -0.5,0.4 l -0.4,0.4 c -0.5,0.6 -0.9,1.3 -1.2,2 -0.4,0.9 -0.6,1.9 -0.6,3 l 0,20.4 c 0,0.6 -0.3,0.8 -0.8,0.8 l -3.4,0 C 93.2,44.1 93,43.8 93,43.3 L 93,23 c 0,-0.8 0,-1.6 0.2,-2.4 0.2,-0.9 0.5,-1.8 0.8,-2.6 0.6,-1.6 1.6,-3 2.7,-4.1 1.1,-1.1 2.5,-2.1 4,-2.7 0.8,-0.3 1.7,-0.6 2.6,-0.8 0.5,-0.1 1,-0.2 1.5,-0.2 l 0.9,0 c 6.9,-0.2 10.1,4.1 11,4.9 0.4,0.4 0.5,1.1 -0.2,1.4 l -3.1,0.8 c -0.8,0.3 -1.4,0.2 -2,-0.3 -0.3,-0.1 -4.1,-3 -8.8,-1.1 z"
               class="st1"
               inkscape:connector-curvature="0"
               style="fill:#000" />
            <path
               id="path3616"
               d="m 135.4,18.1 c -0.6,-1.5 -1.6,-2.9 -2.7,-4 -1.1,-1.1 -5.3,-4.5 -13.8,-3.2 -0.8,0.3 -0.7,0.8 0.1,1.7 0.3,0.3 1.7,1.9 2.3,2.3 0.9,0.8 1.5,0.6 1.8,0.6 7.5,-0.4 8.2,6.4 8.2,7.6 l 0,0.2 c -0.1,0.4 -0.4,0.6 -0.8,0.6 l -8.1,0 c -1.4,0 -2.7,0.2 -3.9,0.8 -1.2,0.5 -2.3,1.2 -3.2,2.2 -0.9,0.9 -1.7,2 -2.2,3.2 -0.5,1.2 -0.8,2.6 -0.8,4 0,1.4 0.2,2.7 0.8,3.9 0.5,1.2 1.3,2.3 2.2,3.2 0.9,0.9 2,1.7 3.2,2.2 1.2,0.5 2.6,0.8 3.9,0.8 l 9.6,0 0.2,0 3.4,0 c 0.6,0 0.8,-0.3 0.8,-0.8 l 0,-20.4 c 0,-1.7 -0.3,-3.4 -1,-4.9 z m -4.1,21.1 -9,0 c -1.4,0 -5.1,-0.9 -5.1,-5.1 0,-1.5 0.6,-3 1.5,-3.7 1.7,-1.5 3.6,-1.4 3.6,-1.4 l 8.2,0 c 0.5,0 0.7,0.2 0.8,0.7 l 0,9.5 0,0 0,0 z"
               class="st1"
               inkscape:connector-curvature="0"
               style="fill:#000" />
          </g>
          <path
             id="path3618"
             d="M 28.3,2 C 14.3,2 3,13.3 3,27.3 c 0,14 11.3,25.3 25.3,25.3 14,0 25.3,-11.3 25.3,-25.3 C 53.7,13.3 42.3,2 28.3,2 Z M 17.9,7.5 c 1.7,-1.9 4.6,-3.4 8.5,-3.8 0.6,0 1.2,-0.1 1.9,-0.1 6.4,0 12.1,2.7 16.2,6.9 C 43.9,10.3 43.1,10 41.6,10 29.1,10 24.9,34.7 21.1,34.6 18.7,34.7 10.2,16.2 17.9,7.5 Z M 28.3,48.7 C 15.8,48.7 5.8,38.6 5.8,26.2 5.8,19 9.2,12.5 14.7,8.3 c -9.1,10.2 1,32.1 6.8,32.7 7.2,0.4 10,-22.5 18.5,-25.4 6.4,-2.4 11.2,7.2 8.3,17.9 -3,9.2 -10.5,15.1 -20,15.2 z M 28.8,9.8 c 3.5,0 6.4,-0.9 6.4,-2 0,-1.1 -2.9,-2 -6.4,-2 -3.5,0 -6.4,0.9 -6.5,2 0.1,1.1 3,2 6.5,2 z"
             class="st1"
             inkscape:connector-curvature="0"
             style="fill:#000" />
        </g>
      </g>
    </g>
  </g>
  <style
     id="style3444"
     type="text/css">
	.st0{fill:none;}
	.st1{fill:#000;}
	.st2{fill:#808285;}
</style>
  <style
     id="style3600"
     type="text/css">
	.st0{fill:none;}
	.st1{fill:#000;}
	.st2{fill:#808285;}
</style>
</svg>
